<svg width="2500" height="676" viewBox="0 0 2500 676" fill="none" xmlns="http://www.w3.org/2000/svg">
<g clip-path="url(#clip0_117_118)">
<path fill-rule="evenodd" clip-rule="evenodd" d="M1327.83 659.494H1660.79C1710.54 659.494 1751.37 639.08 1784.54 598.238C1816.43 558.693 1833.02 511.496 1833.02 457.931C1833.02 349.491 1693.97 272.943 1640.36 272.943H1457.94C1443.91 272.943 1432.41 266.562 1423.5 256.368C1414.56 244.877 1409.46 232.127 1409.46 216.81C1409.46 198.951 1414.56 183.646 1423.5 170.884C1433.7 158.135 1446.45 150.483 1461.77 150.483H1803.67V13.963H1455.38C1392.86 13.963 1344.37 33.1064 1309.92 70.0962C1279.32 104.544 1263.99 150.47 1263.99 205.332C1263.99 258.91 1279.32 306.12 1309.92 344.368C1344.37 386.468 1385.21 408.179 1434.96 408.179H1645.47C1658.21 408.179 1668.43 412.005 1676.07 422.186C1685.01 432.394 1688.83 445.156 1688.83 459.202C1688.83 475.79 1682.45 491.095 1672.24 503.857C1660.77 515.335 1648 521.716 1631.44 521.716H1294.64L1289.54 512.78L1163.25 107.099L1156.86 94.3367C1126.24 31.8224 1075.22 1.21378 1005.05 1.21378C966.779 1.21378 932.332 10.1369 901.71 29.2803C869.817 48.4107 849.403 76.4773 837.925 112.209L668.241 658.21L822.607 659.507L978.245 173.452C982.071 158.135 991.007 150.483 1002.49 150.483C1008.87 150.483 1013.96 153.025 1017.79 156.864C1021.62 161.961 1024.17 167.071 1025.44 173.452L1182.35 659.507L1327.83 659.494ZM179.644 212.984V658.21H36.7563V164.503C36.7563 100.718 52.0736 56.0628 85.2373 29.2803C110.749 10.1369 149.023 -0.0703125 202.601 -0.0703125C245.972 -0.0703125 282.974 12.692 316.138 36.9325C349.302 61.173 370.987 94.3366 382.478 135.165L475.601 463.028L490.919 507.683C492.19 516.606 497.3 522.987 502.397 528.071C508.778 533.195 515.146 535.75 522.811 533.195C535.574 531.924 541.955 524.258 541.955 512.78V15.247H688.669V506.399C688.669 561.261 675.919 602.103 649.124 631.441C623.612 660.778 585.338 676.095 534.302 676.095C489.648 676.095 452.645 667.159 423.307 651.855C387.588 633.996 364.619 605.929 354.412 568.913L247.256 195.125L239.603 170.884C237.048 161.961 231.951 155.58 225.57 149.199C219.189 144.089 211.537 142.818 203.885 144.089C196.233 145.373 191.135 149.199 186.025 156.851C181.831 163.772 179.623 171.714 179.644 179.807V212.984ZM2463.24 659.494L2297.4 107.099L2291.02 94.3367C2260.4 31.8224 2209.37 1.21378 2139.21 1.21378C2100.93 1.21378 2066.49 10.1369 2035.88 29.2803C2003.96 48.4107 1983.57 76.4773 1972.07 112.209L1802.4 658.21L1956.76 659.507L2112.4 173.452C2116.22 158.135 2125.16 150.483 2136.64 150.483C2143.02 150.483 2148.12 153.025 2151.94 156.864C2155.8 161.961 2158.32 167.071 2159.62 173.452L2316.53 659.507L2463.24 659.494Z" fill="black"/>
</g>
<defs>
<clipPath id="clip0_117_118">
<rect width="2500" height="676" fill="white"/>
</clipPath>
</defs>
</svg>
